<?xml version="1.0" encoding="utf-8"?>
<svg version="1.1" 
  xmlns="http://www.w3.org/2000/svg"  x="0px" y="0px" width="100%" height="52">
  <style type="text/css">
	.st1{fill:#362697;}
	.st2{fill:#201B85;}
	.st3{fill:#30247D;}
  </style>
  <defs>
    <pattern id="bg" patternUnits="userSpaceOnUse" width="71.5" height="52">
      <g>
        <g>
          <polygon class="st1" points="67.6,31.4 68.5,33.9 62.8,38 65,31.4 			"/>
          <polygon class="st1" points="65.2,28 64.4,30.6 57.4,30.6 63.1,26.5 			"/>
          <polygon class="st1" points="65.2,24 63.1,25.5 57.4,21.4 64.4,21.4 			"/>
          <polygon class="st1" points="67.6,20.6 65,20.6 62.8,14 68.5,18.1 			"/>
          <polygon class="st1" points="42.1,2.1 44.2,0.5 49.9,4.6 42.9,4.6 			"/>
          <polygon class="st1" points="39.6,5.4 42.3,5.4 44.5,12 38.8,7.9 			"/>
          <polygon class="st1" points="35.8,6.6 37.9,8.2 35.8,14.9 33.6,8.2 			"/>
          <polygon class="st1" points="31.9,5.4 32.7,7.9 27,12 29.2,5.4 			"/>
          <polygon class="st1" points="27.3,0.5 29.5,2.1 28.6,4.6 21.7,4.6 			"/>
          <polygon class="st1" points="3.9,20.6 3.1,18.1 8.7,14 6.6,20.6 			"/>
          <polygon class="st1" points="6.3,24 7.1,21.4 14.1,21.4 8.4,25.5 			"/>
          <polygon class="st1" points="6.3,28 8.4,26.5 14.1,30.6 7.1,30.6 			"/>
          <polygon class="st1" points="3.9,31.4 6.6,31.4 8.7,38 3.1,33.9 			"/>
          <polygon class="st1" points="29.5,50 27.3,51.5 21.7,47.4 28.6,47.4 			"/>
          <polygon class="st1" points="31.9,46.6 29.2,46.6 27,40 32.7,44.1 			"/>
          <polygon class="st1" points="35.8,45.4 33.6,43.8 35.8,37.2 37.9,43.8 			"/>
          <polygon class="st1" points="39.6,46.6 38.8,44.1 44.5,40 42.3,46.6 			"/>
          <polygon class="st1" points="44.2,51.5 42.1,50 42.9,47.4 49.9,47.4 			"/>
          <polygon class="st1" points="71.5,19.4 71.5,11.2 69.4,17.8 			"/>
          <polygon class="st1" points="0,11.2 0,19.4 2.2,17.8 			"/>
          <polygon class="st1" points="0,32.6 0,40.8 2.2,34.2 			"/>
          <polygon class="st1" points="71.5,40.8 71.5,32.6 69.4,34.2 			"/>
        </g>
        <g>
          <polygon class="st2" points="3.3,30.6 6.3,30.6 5.4,27.8 7.8,26 5.4,24.2 6.3,21.4 3.3,21.4 2.4,18.6 0,20.3 0,31.7 2.4,33.4 			
				"/>
          <polygon class="st2" points="41.2,50.2 42.1,47.4 39.1,47.4 38.2,44.6 35.8,46.3 33.3,44.6 32.4,47.4 29.5,47.4 30.4,50.2 28,52 
				44.9,52 43.6,52 			"/>
          <polygon class="st2" points="30.4,1.8 29.5,4.6 32.4,4.6 33.3,7.4 35.8,5.7 38.2,7.4 39.1,4.6 42.1,4.6 41.2,1.8 43.6,0 43.5,0 
				28,0 28,0 			"/>
          <polygon class="st2" points="68.2,21.4 65.2,21.4 66.1,24.2 63.7,26 66.1,27.8 65.2,30.6 68.2,30.6 69.1,33.4 71.5,31.7 
				71.5,20.3 69.1,18.6 			"/>
        </g>
        <g>
          <polygon class="st3" points="19,17.8 15.2,20.6 7.4,20.6 9.8,13.2 13.7,10.4 17.5,13.2 			"/>
          <polygon class="st3" points="15.4,21.4 20.2,21.4 21.7,26.1 20.3,30.6 15.4,30.6 9.1,26 			"/>
          <polygon class="st3" points="19.1,34.2 17.6,38.8 13.7,41.6 9.8,38.8 7.4,31.4 15.3,31.4 			"/>
          <polygon class="st3" points="52.5,17.8 54,13.2 57.8,10.4 61.7,13.2 64.2,20.6 56.3,20.6 			"/>
          <polygon class="st3" points="62.4,26 56.1,30.6 51.2,30.6 49.8,26.1 51.3,21.4 56.1,21.4 			"/>
          <polygon class="st3" points="52.4,34.2 56.3,31.4 64.2,31.4 61.7,38.8 57.8,41.6 53.9,38.8 			"/>
          <polygon class="st3" points="64.8,5.3 69.6,5.3 71.1,9.9 68.7,17.3 62.3,12.7 60.9,8.2 			"/>
          <polygon class="st3" points="54.8,8.2 53.3,12.8 49.4,15.6 45.5,12.8 43.1,5.4 50.9,5.4 			"/>
          <polygon class="st3" points="38.6,8.7 44.9,13.3 46.4,17.8 42.5,20.7 37.7,20.7 36.2,16.1 			"/>
          <polygon class="st3" points="35.4,16.1 33.9,20.7 29.1,20.7 25.1,17.8 26.6,13.3 32.9,8.7 			"/>
          <polygon class="st3" points="20.6,5.4 28.4,5.4 26,12.8 22.1,15.6 18.3,12.8 16.8,8.2 			"/>
          <polygon class="st3" points="0.4,9.9 1.9,5.3 6.7,5.3 10.7,8.2 9.2,12.7 2.8,17.3 			"/>
          <polygon class="st3" points="6.8,46.7 1.9,46.7 0.4,42.1 2.8,34.7 9.2,39.3 10.7,43.8 			"/>
          <polygon class="st3" points="16.8,43.8 18.2,39.2 22.2,36.4 26,39.1 28.4,46.6 20.6,46.6 			"/>
          <polygon class="st3" points="32.9,43.3 26.7,38.8 25.2,34.2 29.1,31.3 33.9,31.3 35.4,35.9 			"/>
          <polygon class="st3" points="36.2,35.9 37.7,31.3 42.4,31.3 46.3,34.2 44.8,38.8 38.6,43.3 			"/>
          <polygon class="st3" points="50.9,46.6 43.1,46.6 45.6,39.1 49.4,36.4 53.3,39.2 54.8,43.8 			"/>
          <polygon class="st3" points="60.9,43.8 62.4,39.3 68.7,34.7 71.1,42.1 69.6,46.7 64.8,46.7 			"/>
          <polygon class="st3" points="36.4,26 42.7,21.4 47.5,21.4 49,25.9 47.5,30.6 42.7,30.6 			"/>
          <polygon class="st3" points="24,30.6 22.5,25.9 24,21.4 28.8,21.4 35.1,26 28.8,30.6 			"/>
          <polygon class="st3" points="6.9,47.4 0.7,52 13.3,52 11.8,47.4 			"/>
          <polygon class="st3" points="20.4,47.4 15.6,47.4 14.1,52 28,52 26.6,52 			"/>
          <polygon class="st3" points="51.1,47.4 44.9,52 57.4,52 55.9,47.4 			"/>
          <polygon class="st3" points="59.7,47.4 58.2,52 70.9,52 64.6,47.4 			"/>
          <polygon class="st3" points="59.7,4.6 64.6,4.6 70.9,0 58.2,0 58.2,0 			"/>
          <polygon class="st3" points="51.1,4.6 55.9,4.6 57.4,0 57.4,0 44.9,0 44.9,0 			"/>
          <polygon class="st3" points="15.6,4.6 20.4,4.6 26.6,0 26.6,0 14.1,0 14.1,0 			"/>
          <polygon class="st3" points="11.8,4.6 13.3,0 13.3,0 0.7,0 7,4.6 			"/>
        </g>
      </g>

    </pattern>
  </defs>
  
  <rect width="100%" height="100%" fill="url(#bg)"/>
</svg>
