<svg version="1.1" xmlns="http://www.w3.org/2000/svg" xmlns:xlink="http://www.w3.org/1999/xlink" x="0px" y="0px" fill="#9f2226" width="14" height="17" viewBox="0 0 30 40" style="enable-background:new 0 0 30 40;" xml:space="preserve">
<path d="M14.2,20c-0.4-1.2-0.4-3.7-0.2-3.7C14.7,16.3,14.6,19.2,14.2,20z M14.1,23.7c-0.6,1.6-1.4,3.4-2.2,4.9
                c1.4-0.5,3-1.3,4.9-1.7C15.8,26.1,14.8,25.1,14.1,23.7L14.1,23.7z M6.7,33.4c0,0.1,1-0.4,2.7-3.1C8.9,30.8,7.2,32.2,6.7,33.4z
                M19.4,12.5H30v25.6c0,1-0.8,1.9-1.9,1.9H1.9c-1,0-1.9-0.8-1.9-1.9V1.9C0,0.8,0.8,0,1.9,0h15.6v10.6C17.5,11.7,18.3,12.5,19.4,12.5z
                M18.8,25.9c-1.6-1-2.6-2.3-3.3-4.2c0.4-1.4,0.9-3.6,0.5-5c-0.4-2.3-3.3-2.1-3.7-0.5c-0.4,1.4,0,3.4,0.6,6c-0.9,2.2-2.2,5-3.2,6.7
                c0,0,0,0,0,0c-2.1,1.1-5.7,3.5-4.3,5.3C5.8,34.8,6.6,35,7,35c1.4,0,2.8-1.4,4.8-4.8c2-0.7,4.2-1.5,6.2-1.8c1.7,0.9,3.7,1.5,5,1.5
                c2.3,0,2.4-2.5,1.5-3.4C23.4,25.4,20.3,25.7,18.8,25.9z M29.5,8.2l-7.7-7.7C21.4,0.2,21,0,20.5,0H20v10h10V9.5
                C30,9,29.8,8.6,29.5,8.2z M23.7,28.1c0.3-0.2-0.2-0.9-3.3-0.7C23.2,28.7,23.7,28.1,23.7,28.1z"></path>
</svg>