<?xml version="1.0" encoding="utf-8"?>
<!-- Generator: Adobe Illustrator 23.0.6, SVG Export Plug-In . SVG Version: 6.00 Build 0)  -->
<svg version="1.1" id="Layer_1" xmlns="http://www.w3.org/2000/svg" xmlns:xlink="http://www.w3.org/1999/xlink" x="0px" y="0px"
	 viewBox="0 0 54.7 100" style="enable-background:new 0 0 54.7 100;" xml:space="preserve">
<style type="text/css">
	.st0{display:none;fill-rule:evenodd;clip-rule:evenodd;fill:#2A225F;}
	.st1{fill-rule:evenodd;clip-rule:evenodd;fill:#44B978;}
	.st2{fill-rule:evenodd;clip-rule:evenodd;fill:#F3E6DD;}
</style>
<rect x="-100.7" y="-244" class="st0" width="400" height="400"/>
<g>
	<path class="st1" d="M37.6,99c-3.7-3-5.9-6.3-6.8-10.3c-0.5-2.3-0.1-4.5,1.3-6.3c1.4-1.7,3.5-2.7,5.9-2.7c0.1,0,0.2,0,0.4,0
		c0.4,0,0.9,0,1.3,0.1c0.8,0,1.7,0.1,2.5,0.1c1.2,0,2.2-0.1,3.1-0.3c5.4-1.2,8.6-5.1,9.3-11.4c0.2-1.9-0.1-7.3-0.1-7.5l-0.1-1
		L54,60.6c-0.8,1.9-4.2,5.5-10.9,5.5c-0.7,0-1.4,0-2.1-0.1c-5.4,0.3-7.2,1.2-11.3,6.3c-1.3-2.6-0.9-8.8,0.8-10.4
		c1.3-1.3,3.1-1.5,4.9-1.8c0.3,0,0.6-0.1,0.9-0.1l0.5-0.1c6.7-1,16.7-2.5,16.8-18.6l0-0.6l-0.4,0.4c-1.8,1.9-4.5,2.2-6.8,2.2
		c-1.1,0-2.2-0.1-3.3-0.1c-1.1-0.1-2.3-0.1-3.4-0.1c-6.8,0-8.8,3.4-9.7,6.8c0,0-0.1,0-0.1,0c-0.4-2.7,0-5.5,0.3-8.1
		c0.1-0.9,0.2-1.9,0.3-2.8c0-0.5,0.4-0.7,1.2-0.9c6.3-1.6,10.3-8.6,9-16.1c-0.2-1-0.4-1.9-0.6-2.9c-0.1-0.6-0.3-1.2-0.4-1.8
		c-1.1-5.1-0.9-8.5,0.4-10l0.3-0.3L40,6.8c-0.7-0.2-1.3-0.2-2-0.2c-3.1,0-5.1,1.8-7,3.5c-1.2,1-2.3,2-3.6,2.6h-0.3
		c-1.3-0.6-2.4-1.6-3.6-2.6c-1.9-1.7-3.9-3.5-7-3.5c-0.6,0-1.3,0.1-2,0.2l-0.4,0.1l0.3,0.3c1.4,1.5,1.5,4.9,0.4,10
		c-0.1,0.6-0.3,1.2-0.4,1.8c-0.2,0.9-0.4,1.9-0.6,2.9c-1.3,7.4,2.7,14.5,9,16.1c0.8,0.2,1.1,0.5,1.2,0.9c0.1,0.9,0.2,1.9,0.3,2.8
		c0.4,2.7,0.7,5.4,0.3,8.1c-0.1,0-0.1,0-0.1,0c-0.9-3.4-2.9-6.8-9.7-6.8c-1.1,0-2.3,0.1-3.4,0.1c-1.1,0.1-2.2,0.1-3.3,0.1
		c-2.3,0-4.9-0.3-6.8-2.2L1,40.7l0,0.6c0.1,16.1,10.2,17.6,16.8,18.6l0.5,0.1c0.3,0,0.6,0.1,0.9,0.1c1.7,0.2,3.5,0.5,4.9,1.8
		c1.7,1.6,2.1,7.8,0.8,10.4c-4.1-5-5.8-6-11.3-6.3c-0.7,0.1-1.4,0.1-2.1,0.1c-6.7,0-10.1-3.6-10.9-5.5l-0.4-0.9l-0.1,1
		c0,0.2-0.4,5.6-0.1,7.5c0.7,6.4,3.9,10.2,9.3,11.4c0.9,0.2,1.9,0.3,3.1,0.3c0.9,0,1.7,0,2.5-0.1c0.4,0,0.9,0,1.3-0.1
		c0.1,0,0.3,0,0.4,0c2.4,0,4.5,1,5.9,2.7c1.4,1.7,1.8,3.9,1.3,6.3c-0.9,4-3.1,7.3-6.8,10.3c-0.4,0.3-0.8,0.7-1.3,1h23
		C38.4,99.7,38,99.4,37.6,99z"/>
	<path class="st1" d="M38.8,100h-23"/>
	<path class="st2" d="M30.6,18.8c-1-2.7-0.4-5.2,1.1-7.6c5-7.5-2.9-6.1-4.4-11.2c0,0,0,0,0,0c0,0,0,0,0,0C25.9,5.1,18,3.7,23,11.2
		c1.6,2.4,2.1,4.8,1.1,7.6c-0.5,1.3-1,2.6-1.4,4c-0.5,1.5-0.5,3.1,0.2,4.6c0.8,1.8,2.5,2.4,4.6,2.4c1.8,0,3.6-0.7,4.4-2.4
		c0.7-1.5,0.7-3.1,0.2-4.6C31.6,21.4,31.1,20.1,30.6,18.8z"/>
</g>
</svg>
