<?xml version="1.0" encoding="utf-8"?>
<!-- Generator: Adobe Illustrator 23.0.6, SVG Export Plug-In . SVG Version: 6.00 Build 0)  -->
<svg version="1.1" id="Layer_1" xmlns="http://www.w3.org/2000/svg" xmlns:xlink="http://www.w3.org/1999/xlink" x="0px" y="0px"
	 viewBox="0 0 22 16" style="enable-background:new 0 0 22 16;" xml:space="preserve">
<style type="text/css">
	.st0{fill:#362697;}
	.st1{fill:#201B85;}
	.st2{fill:#30247D;}
</style>
<g id="bg-tiny">
	<g>
		<polygon class="st0" points="20.8,9.7 21.1,10.4 19.3,11.7 20,9.7 		"/>
		<polygon class="st0" points="20.1,8.6 19.8,9.4 17.7,9.4 19.4,8.2 		"/>
		<polygon class="st0" points="20.1,7.4 19.4,7.8 17.7,6.6 19.8,6.6 		"/>
		<polygon class="st0" points="20.8,6.3 20,6.3 19.3,4.3 21.1,5.6 		"/>
		<polygon class="st0" points="13,0.6 13.6,0.2 15.4,1.4 13.2,1.4 		"/>
		<polygon class="st0" points="12.2,1.7 13,1.7 13.7,3.7 11.9,2.4 		"/>
		<polygon class="st0" points="11,2 11.7,2.5 11,4.6 10.3,2.5 		"/>
		<polygon class="st0" points="9.8,1.7 10.1,2.4 8.3,3.7 9,1.7 		"/>
		<polygon class="st0" points="8.4,0.2 9.1,0.6 8.8,1.4 6.7,1.4 		"/>
		<polygon class="st0" points="1.2,6.3 1,5.6 2.7,4.3 2,6.3 		"/>
		<polygon class="st0" points="1.9,7.4 2.2,6.6 4.3,6.6 2.6,7.8 		"/>
		<polygon class="st0" points="1.9,8.6 2.6,8.2 4.3,9.4 2.2,9.4 		"/>
		<polygon class="st0" points="1.2,9.7 2,9.7 2.7,11.7 1,10.4 		"/>
		<polygon class="st0" points="9.1,15.4 8.4,15.8 6.7,14.6 8.8,14.6 		"/>
		<polygon class="st0" points="9.8,14.3 9,14.3 8.3,12.3 10.1,13.6 		"/>
		<polygon class="st0" points="11,14 10.3,13.5 11,11.4 11.7,13.5 		"/>
		<polygon class="st0" points="12.2,14.3 11.9,13.6 13.7,12.3 13,14.3 		"/>
		<polygon class="st0" points="13.6,15.8 13,15.4 13.2,14.6 15.4,14.6 		"/>
		<polygon class="st0" points="22,6 22,3.4 21.4,5.5 		"/>
		<polygon class="st0" points="0,3.4 0,6 0.7,5.5 		"/>
		<polygon class="st0" points="0,10 0,12.6 0.7,10.5 		"/>
		<polygon class="st0" points="22,12.6 22,10 21.4,10.5 		"/>
	</g>
	<g>
		<polygon class="st1" points="1,9.4 1.9,9.4 1.7,8.6 2.4,8 1.7,7.4 1.9,6.6 1,6.6 0.7,5.7 0,6.2 0,9.8 0.7,10.3 		"/>
		<polygon class="st1" points="12.7,15.4 13,14.6 12,14.6 11.8,13.7 11,14.2 10.2,13.7 10,14.6 9.1,14.6 9.4,15.4 8.6,16 13.8,16 
			13.4,16 		"/>
		<polygon class="st1" points="9.4,0.6 9.1,1.4 10,1.4 10.2,2.3 11,1.8 11.8,2.3 12,1.4 13,1.4 12.7,0.6 13.4,0 13.4,0 8.6,0 8.6,0 
					"/>
		<polygon class="st1" points="21,6.6 20.1,6.6 20.3,7.4 19.6,8 20.3,8.6 20.1,9.4 21,9.4 21.3,10.3 22,9.8 22,6.2 21.3,5.7 		"/>
	</g>
	<g>
		<polygon class="st2" points="5.8,5.5 4.7,6.3 2.3,6.3 3,4.1 4.2,3.2 5.4,4.1 		"/>
		<polygon class="st2" points="4.7,6.6 6.2,6.6 6.7,8 6.2,9.4 4.7,9.4 2.8,8 		"/>
		<polygon class="st2" points="5.9,10.5 5.4,11.9 4.2,12.8 3,11.9 2.3,9.7 4.7,9.7 		"/>
		<polygon class="st2" points="16.2,5.5 16.6,4.1 17.8,3.2 19,4.1 19.8,6.3 17.3,6.3 		"/>
		<polygon class="st2" points="19.2,8 17.3,9.4 15.8,9.4 15.3,8 15.8,6.6 17.3,6.6 		"/>
		<polygon class="st2" points="16.1,10.5 17.3,9.7 19.8,9.7 19,11.9 17.8,12.8 16.6,11.9 		"/>
		<polygon class="st2" points="19.9,1.6 21.4,1.6 21.9,3 21.1,5.3 19.2,3.9 18.7,2.5 		"/>
		<polygon class="st2" points="16.9,2.5 16.4,3.9 15.2,4.8 14,3.9 13.3,1.7 15.7,1.7 		"/>
		<polygon class="st2" points="11.9,2.7 13.8,4.1 14.3,5.5 13.1,6.4 11.6,6.4 11.1,5 		"/>
		<polygon class="st2" points="10.9,5 10.4,6.4 9,6.4 7.7,5.5 8.2,4.1 10.1,2.7 		"/>
		<polygon class="st2" points="6.3,1.7 8.7,1.7 8,3.9 6.8,4.8 5.6,3.9 5.2,2.5 		"/>
		<polygon class="st2" points="0.1,3 0.6,1.6 2.1,1.6 3.3,2.5 2.8,3.9 0.9,5.3 		"/>
		<polygon class="st2" points="2.1,14.4 0.6,14.4 0.1,13 0.9,10.7 2.8,12.1 3.3,13.5 		"/>
		<polygon class="st2" points="5.2,13.5 5.6,12.1 6.8,11.2 8,12 8.7,14.3 6.3,14.3 		"/>
		<polygon class="st2" points="10.1,13.3 8.2,11.9 7.8,10.5 9,9.6 10.4,9.6 10.9,11 		"/>
		<polygon class="st2" points="11.1,11 11.6,9.6 13,9.6 14.2,10.5 13.8,11.9 11.9,13.3 		"/>
		<polygon class="st2" points="15.7,14.3 13.3,14.3 14,12 15.2,11.2 16.4,12.1 16.9,13.5 		"/>
		<polygon class="st2" points="18.7,13.5 19.2,12.1 21.1,10.7 21.9,13 21.4,14.4 19.9,14.4 		"/>
		<polygon class="st2" points="11.2,8 13.1,6.6 14.6,6.6 15.1,8 14.6,9.4 13.1,9.4 		"/>
		<polygon class="st2" points="7.4,9.4 6.9,8 7.4,6.6 8.9,6.6 10.8,8 8.9,9.4 		"/>
		<polygon class="st2" points="2.1,14.6 0.2,16 4.1,16 3.6,14.6 		"/>
		<polygon class="st2" points="6.3,14.6 4.8,14.6 4.3,16 8.6,16 8.2,16 		"/>
		<polygon class="st2" points="15.7,14.6 13.8,16 17.7,16 17.2,14.6 		"/>
		<polygon class="st2" points="18.4,14.6 17.9,16 21.8,16 19.9,14.6 		"/>
		<polygon class="st2" points="18.4,1.4 19.9,1.4 21.8,0 17.9,0 17.9,0 		"/>
		<polygon class="st2" points="15.7,1.4 17.2,1.4 17.7,0 17.7,0 13.8,0 13.8,0 		"/>
		<polygon class="st2" points="4.8,1.4 6.3,1.4 8.2,0 8.2,0 4.3,0 4.3,0 		"/>
		<polygon class="st2" points="3.6,1.4 4.1,0 4.1,0 0.2,0 2.2,1.4 		"/>
	</g>
</g>
</svg>
