<?xml version="1.0" encoding="utf-8"?>
<svg version="1.1" xmlns="http://www.w3.org/2000/svg" xmlns:xlink="http://www.w3.org/1999/xlink" x="0px" y="0px"
	 viewBox="0 0 370 269" enable-background="new 0 0 370 269" xml:space="preserve">
<g>
	<rect fill="#090762" width="370" height="269"/>
</g>
<g>
	<g>
		<polygon fill="#362697" points="349.9,162.2 354.1,175.4 324.9,196.7 336.1,162.2 		"/>
		<polygon fill="#362697" points="337.4,145.1 333.2,158.2 297,158.2 326.3,137 		"/>
		<polygon fill="#362697" points="337.4,123.9 326.3,132 297,110.8 333.2,110.8 		"/>
		<polygon fill="#362697" points="349.9,106.8 336.1,106.8 324.9,72.3 354.1,93.6 		"/>
		<polygon fill="#362697" points="217.6,10.7 228.7,2.6 258,23.8 221.8,23.8 		"/>
		<polygon fill="#362697" points="205.1,27.8 218.9,27.8 230.1,62.2 200.9,41 		"/>
		<polygon fill="#362697" points="185,34.4 196.2,42.5 185,76.9 173.8,42.5 		"/>
		<polygon fill="#362697" points="164.9,27.8 169.1,41 139.9,62.2 151.1,27.8 		"/>
		<polygon fill="#362697" points="141.3,2.6 152.4,10.7 148.2,23.8 112,23.8 		"/>
		<polygon fill="#362697" points="20.1,106.8 15.9,93.6 45.1,72.3 33.9,106.8 		"/>
		<polygon fill="#362697" points="32.6,123.9 36.8,110.8 73,110.8 43.7,132 		"/>
		<polygon fill="#362697" points="32.6,145.1 43.7,137 73,158.2 36.8,158.2 		"/>
		<polygon fill="#362697" points="20.1,162.2 33.9,162.2 45.1,196.7 15.9,175.4 		"/>
		<polygon fill="#362697" points="152.4,258.4 141.3,266.5 112,245.3 148.2,245.3 		"/>
		<polygon fill="#362697" points="164.9,241.3 151.1,241.3 139.9,206.8 169.1,228.1 		"/>
		<polygon fill="#362697" points="185,234.7 173.8,226.6 185,192.2 196.2,226.6 		"/>
		<polygon fill="#362697" points="205.1,241.3 200.9,228.1 230.1,206.8 218.9,241.3 		"/>
		<polygon fill="#362697" points="228.7,266.5 217.6,258.4 221.8,245.3 258,245.3 		"/>
		<polygon fill="#362697" points="370,100.2 370,57.7 358.8,92.1 		"/>
		<polygon fill="#362697" points="0,57.7 0,100.2 11.2,92.1 		"/>
		<polygon fill="#362697" points="0,168.8 0,211.3 11.2,176.9 		"/>
		<polygon fill="#362697" points="370,211.3 370,168.8 358.8,176.9 		"/>
	</g>
	<g>
		<polygon fill="#201B85" points="17.2,158.2 32.6,158.2 27.9,143.6 40.3,134.5 27.9,125.4 32.6,110.8 17.2,110.8 12.5,96.1 
			0,105.2 0,163.8 12.5,172.9 		"/>
		<polygon fill="#201B85" points="212.9,259.9 217.6,245.3 202.2,245.3 197.5,230.6 185,239.7 172.5,230.6 167.8,245.3 152.4,245.3 
			157.1,259.9 144.7,269 232.2,269 225.3,269 		"/>
		<polygon fill="#201B85" points="157.1,9.2 152.4,23.8 167.8,23.8 172.5,38.5 185,29.4 197.5,38.5 202.2,23.8 217.6,23.8 
			212.9,9.2 225.3,0.1 225.2,0 144.8,0 144.7,0.1 		"/>
		<polygon fill="#201B85" points="352.8,110.8 337.4,110.8 342.1,125.4 329.7,134.5 342.1,143.6 337.4,158.2 352.8,158.2 
			357.5,172.9 370,163.8 370,105.2 357.5,96.1 		"/>
	</g>
	<g>
		<polygon fill="#30247D" points="98.5,92.3 78.7,106.8 38.1,106.8 50.6,68.5 70.9,53.8 90.7,68.2 		"/>
		<polygon fill="#30247D" points="79.6,110.9 104.6,110.9 112.4,134.9 104.9,158.1 79.6,158.1 47.2,134.5 		"/>
		<polygon fill="#30247D" points="98.8,176.7 91,200.7 70.9,215.3 50.6,200.6 38.1,162.2 79,162.2 		"/>
		<polygon fill="#30247D" points="271.5,92.3 279.3,68.2 299.1,53.8 319.4,68.5 331.9,106.8 291.3,106.8 		"/>
		<polygon fill="#30247D" points="322.8,134.5 290.4,158.1 265.1,158.1 257.6,134.9 265.4,110.9 290.4,110.9 		"/>
		<polygon fill="#30247D" points="271.2,176.7 291,162.2 331.9,162.2 319.4,200.6 299.1,215.3 279,200.7 		"/>
		<polygon fill="#30247D" points="335.1,27.6 360.2,27.6 367.9,51.2 355.4,89.6 322.5,65.7 314.9,42.3 		"/>
		<polygon fill="#30247D" points="283.3,42.3 275.5,66.4 255.7,80.8 235.6,66.2 223.1,27.8 263.5,27.8 		"/>
		<polygon fill="#30247D" points="199.6,45 232.2,68.7 239.9,92.3 219.7,107 194.8,107 187.1,83.4 		"/>
		<polygon fill="#30247D" points="182.9,83.4 175.2,107 150.3,107 130.1,92.3 137.8,68.7 170.4,45 		"/>
		<polygon fill="#30247D" points="106.5,27.8 146.9,27.8 134.4,66.2 114.3,80.8 94.5,66.4 86.7,42.3 		"/>
		<polygon fill="#30247D" points="2.1,51.2 9.8,27.6 34.9,27.6 55.1,42.3 47.5,65.7 14.6,89.6 		"/>
		<polygon fill="#30247D" points="35,241.4 9.8,241.4 2.1,217.8 14.6,179.4 47.4,203.3 55.1,226.8 		"/>
		<polygon fill="#30247D" points="86.7,226.8 94.4,202.8 114.6,188.2 134.3,202.5 146.9,241.3 106.5,241.3 		"/>
		<polygon fill="#30247D" points="170.4,224.1 138.2,200.7 130.4,176.7 150.5,162.1 175.2,162.1 182.9,185.7 		"/>
		<polygon fill="#30247D" points="187.1,185.7 194.8,162.1 219.5,162.1 239.6,176.7 231.8,200.7 199.6,224.1 		"/>
		<polygon fill="#30247D" points="263.5,241.3 223.1,241.3 235.7,202.5 255.4,188.2 275.6,202.8 283.3,226.8 		"/>
		<polygon fill="#30247D" points="314.9,226.8 322.6,203.3 355.4,179.4 367.9,217.8 360.2,241.4 335,241.4 		"/>
		<polygon fill="#30247D" points="188.5,134.5 221,110.9 245.9,110.9 253.4,134.1 245.6,158.1 220.8,158.1 		"/>
		<polygon fill="#30247D" points="124.4,158.1 116.6,134.1 124.1,110.9 149,110.9 181.5,134.5 149.2,158.1 		"/>
		<polygon fill="#30247D" points="35.8,245.4 3.4,269 68.8,269 61.1,245.4 		"/>
		<polygon fill="#30247D" points="105.4,245.4 80.6,245.4 73,269 144.7,269 137.8,269 		"/>
		<polygon fill="#30247D" points="264.6,245.4 232.2,269 297,269 289.4,245.4 		"/>
		<polygon fill="#30247D" points="308.9,245.4 301.2,269 366.6,269 334.2,245.4 		"/>
		<polygon fill="#30247D" points="308.9,23.7 334,23.7 366.6,0 301.3,0 301.2,0.1 		"/>
		<polygon fill="#30247D" points="264.6,23.7 289.4,23.7 297,0.1 297,0 232.3,0 232.2,0.1 		"/>
		<polygon fill="#30247D" points="80.6,23.7 105.4,23.7 137.8,0.1 137.7,0 73,0 73,0.1 		"/>
		<polygon fill="#30247D" points="61.1,23.7 68.8,0.1 68.7,0 3.4,0 36,23.7 		"/>
	</g>
</g>
</svg>